<?xml version="1.0" standalone="no"?>
<!DOCTYPE svg PUBLIC "-//W3C//DTD SVG 20010904//EN"
 "http://www.w3.org/TR/2001/REC-SVG-20010904/DTD/svg10.dtd">
<svg version="1.0" xmlns="http://www.w3.org/2000/svg"
 width="400" height="400" viewBox="0 0 1254 1254"
 preserveAspectRatio="xMidYMid meet">
<metadata>
Created by potrace 1.16, written by Peter Selinger 2001-2019
</metadata>
<rect width="1254" height="1254" fill="white"/>
<g transform="translate(0.000000,1254.000000) scale(0.100000,-0.100000)"
fill="#7C3AED" stroke="none">
<path d="M5935 10514 c-994 -78 -1898 -482 -2594 -1159 -347 -338 -588 -664
-805 -1089 -244 -480 -382 -966 -437 -1541 -18 -182 -15 -586 5 -771 94 -877
425 -1652 990 -2313 437 -513 1060 -940 1711 -1175 1030 -372 2146 -317 3070
149 549 278 1019 687 1341 1170 98 147 120 205 75 205 -10 0 -70 -63 -138
-142 -727 -857 -1737 -1338 -2813 -1338 -971 0 -1881 376 -2628 1085 -79 75
-243 257 -339 377 -460 577 -749 1286 -828 2036 -17 160 -20 556 -5 717 47
503 170 934 395 1390 210 424 451 756 775 1068 279 269 556 466 910 646 417
212 858 342 1340 392 149 16 531 16 685 0 1041 -106 1963 -626 2644 -1489 77
-97 111 -117 111 -65 0 53 -182 326 -348 523 -393 466 -907 838 -1462 1060
-288 114 -604 195 -940 241 -140 19 -582 33 -715 23z"/>
<path d="M6020 9431 c-106 -16 -208 -100 -252 -209 l-23 -57 0 -1192 0 -1191
-21 -29 c-41 -55 -103 -54 -140 2 -16 25 -148 772 -279 1585 -51 315 -59 351
-91 418 -73 151 -235 219 -386 162 -131 -49 -208 -168 -208 -324 0 -39 56
-491 125 -1006 147 -1109 142 -1066 160 -1289 23 -283 17 -568 -16 -669 -28
-85 -94 -118 -174 -88 -98 38 -212 142 -448 409 -166 189 -257 280 -340 343
-142 106 -275 166 -419 187 -140 20 -280 -19 -365 -103 -57 -57 -77 -103 -77
-175 0 -83 26 -128 116 -200 117 -95 267 -238 374 -356 200 -224 333 -411 599
-844 326 -529 474 -734 693 -959 362 -370 745 -557 1224 -596 478 -40 922 123
1234 453 359 380 528 905 589 1832 14 205 26 336 41 430 18 113 140 644 352
1535 17 69 33 146 37 171 9 58 -15 154 -51 208 -114 173 -374 135 -461 -68
-15 -35 -166 -542 -300 -1005 -41 -142 -79 -266 -85 -276 -20 -32 -67 -52
-102 -46 -41 8 -65 34 -72 77 -3 19 19 234 50 479 31 245 78 636 106 870 27
234 59 497 70 585 16 127 18 173 10 223 -28 173 -138 275 -295 276 -110 0
-199 -50 -259 -144 -44 -69 -34 -9 -225 -1375 -33 -236 -67 -484 -76 -550 -19
-145 -20 -148 -52 -185 -45 -54 -130 -36 -152 33 -11 33 -31 1268 -31 1923 0
192 -5 382 -10 422 -27 207 -185 341 -370 313z"/>
<path d="M9685 8090 c-56 -23 -99 -94 -98 -161 1 -62 11 -79 112 -184 146
-152 248 -298 349 -500 147 -295 225 -603 239 -946 14 -355 -60 -736 -209
-1064 -101 -223 -207 -385 -381 -578 -53 -59 -99 -119 -103 -134 -3 -16 -8
-34 -10 -42 -9 -28 19 -96 55 -132 43 -44 109 -59 172 -40 65 20 252 220 374
402 440 656 569 1498 345 2262 -123 421 -321 763 -599 1033 -39 38 -84 74 -99
81 -31 14 -117 16 -147 3z"/>
<path d="M9212 7522 c-41 -12 -88 -59 -100 -100 -27 -90 -12 -131 85 -236 155
-168 270 -393 330 -646 31 -130 43 -409 24 -541 -45 -306 -173 -586 -366 -801
-72 -79 -90 -119 -82 -185 9 -80 66 -134 150 -141 72 -6 117 18 193 105 101
115 133 158 199 267 277 461 340 1046 168 1556 -73 216 -195 429 -343 599
-105 119 -167 149 -258 123z"/>
<path d="M8707 6986 c-49 -18 -64 -32 -88 -77 -38 -76 -22 -144 56 -231 50
-56 105 -157 137 -253 20 -61 23 -89 23 -220 0 -129 -3 -160 -23 -225 -31 -98
-85 -200 -137 -258 -56 -62 -75 -102 -75 -154 0 -112 105 -190 213 -158 81 23
208 182 281 349 67 153 81 230 80 446 0 163 -4 201 -22 269 -26 94 -78 216
-124 293 -45 75 -136 183 -173 204 -43 25 -103 31 -148 15z"/>
</g>
</svg>
